# Blender 4.1.1
# www.blender.org
o Plane
v 3.200000 0.000000 1.800000
v 3.200000 0.000000 -1.800000
v -2.400027 0.000000 1.496645
v -2.088830 0.000000 1.662983
v -1.751163 0.000000 1.765413
v -1.400000 0.000000 1.800000
v -3.165414 0.000000 0.351163
v -3.200000 0.000000 0.000000
v -3.062983 0.000000 0.688830
v -3.062983 0.000000 -0.688830
v -2.896645 0.000000 1.000026
v -3.165414 0.000000 -0.351163
v -2.672792 0.000000 1.272792
v -2.672792 0.000000 -1.272792
v -2.400027 0.000000 -1.496645
v -2.088830 0.000000 -1.662983
v -1.751163 0.000000 -1.765413
v -1.400000 0.000000 -1.800000
v -2.896645 0.000000 -1.000026
vn -0.0000 1.0000 -0.0000
vt 0.226381 0.990393
vt 0.173620 0.961940
vt 0.124996 0.915735
vt 0.082376 0.853553
vt 0.047399 0.777785
vt 0.021409 0.691342
vt 0.005404 0.597545
vt 0.000000 0.500000
vt 0.005404 0.402455
vt 0.021409 0.308658
vt 0.047399 0.222215
vt 0.082376 0.146447
vt 0.124996 0.084265
vt 0.173620 0.038060
vt 0.226381 0.009607
vt 0.281250 0.000000
vt 1.000000 0.000000
vt 1.000000 1.000000
vt 0.281250 1.000000
s 0
f 17/1/1 16/2/1 15/3/1 14/4/1 19/5/1 10/6/1 12/7/1 8/8/1 7/9/1 9/10/1 11/11/1 13/12/1 3/13/1 4/14/1 5/15/1 6/16/1 1/17/1 2/18/1 18/19/1
o Cylinder.001
v -1.400000 0.200000 1.800000
v -1.751163 0.200000 -1.765413
v -1.400000 0.200000 -1.800000
v -2.088830 0.200000 -1.662983
v -1.751163 0.200000 1.765413
v -2.088830 0.200000 1.662983
v -3.165413 0.200000 0.351163
v -3.165413 0.200000 -0.351163
v -2.896645 0.200000 -1.000026
v -3.062983 0.200000 -0.688830
v -2.400026 0.200000 -1.496645
v -2.672792 0.200000 -1.272792
v -2.400026 0.200000 1.496645
v -2.672792 0.200000 1.272792
v -3.062983 0.200000 0.688830
v -2.896645 0.200000 1.000026
v -1.400000 0.000000 1.800000
v -1.400000 0.000000 -1.800000
v -1.751163 0.000000 1.765413
v -1.751163 0.000000 -1.765413
v -2.088830 0.000000 -1.662983
v -2.400026 0.000000 -1.496645
v -2.088830 0.000000 1.662983
v -2.672792 0.000000 1.272792
v -2.400026 0.000000 1.496645
v -3.062983 0.000000 0.688830
v -3.200000 0.000000 0.000000
v -3.165413 0.000000 0.351163
v -2.896645 0.000000 1.000026
v -3.165413 0.000000 -0.351163
v -2.896645 0.000000 -1.000026
v -2.672792 0.000000 -1.272792
v -3.062983 0.000000 -0.688830
v -3.200000 0.200000 -0.000002
v -3.200000 0.100000 -0.000002
v -3.200000 0.100000 0.000000
v -3.200000 0.100000 0.000002
v -3.200000 0.200000 0.000002
v -3.200000 0.200000 1.765413
v -3.200000 0.200000 1.800000
v -3.200000 0.200000 1.662983
v -3.200000 0.200000 1.496645
v -3.200000 0.200000 1.272792
v -3.200000 0.200000 1.000026
v -3.200000 0.200000 0.688830
v -3.200000 0.200000 0.351163
v -3.200000 0.200000 -0.351163
v -3.200000 0.200000 -0.688830
v -3.200000 0.200000 -1.000026
v -3.200000 0.200000 -1.272792
v -3.200000 0.200000 -1.496645
v -3.200000 0.200000 -1.662983
v -3.200000 0.200000 -1.765413
v -3.200000 0.200000 -1.800000
vn 0.9952 -0.0000 0.0980
vn 0.0980 -0.0000 -0.9952
vn 0.2903 -0.0000 -0.9569
vn 0.4714 -0.0000 -0.8819
vn 0.6344 -0.0000 -0.7730
vn 0.7730 -0.0000 -0.6344
vn 0.8819 -0.0000 -0.4714
vn 0.9569 -0.0000 -0.2903
vn 0.9952 -0.0000 -0.0980
vn 0.9569 -0.0000 0.2903
vn 0.8819 -0.0000 0.4714
vn 0.7730 -0.0000 0.6344
vn 0.6344 -0.0000 0.7730
vn 0.4714 -0.0000 0.8819
vn 0.2903 -0.0000 0.9569
vn 0.0980 -0.0000 0.9952
vn -0.0000 -1.0000 -0.0000
vt 1.000000 0.750000
vt 1.000000 0.625000
vt 0.968750 0.625000
vt 0.968750 0.875000
vt 1.000000 0.875000
vt 1.000000 0.750000
vt 0.250000 0.625000
vt 0.218750 0.625000
vt 0.218750 0.875000
vt 0.250000 0.875000
vt 0.187500 0.625000
vt 0.187500 0.875000
vt 0.156250 0.625000
vt 0.156250 0.875000
vt 0.125000 0.625000
vt 0.125000 0.875000
vt 0.093750 0.625000
vt 0.093750 0.875000
vt 0.062500 0.625000
vt 0.062500 0.875000
vt 0.031250 0.625000
vt 0.031250 0.875000
vt 0.000000 0.625000
vt 0.000000 0.750000
vt 0.000000 0.750000
vt 0.000000 0.875000
vt 0.937500 0.625000
vt 0.937500 0.875000
vt 0.906250 0.625000
vt 0.906250 0.875000
vt 0.875000 0.625000
vt 0.875000 0.875000
vt 0.843750 0.875000
vt 0.843750 0.625000
vt 0.812500 0.875000
vt 0.812500 0.625000
vt 0.781250 0.875000
vt 0.781250 0.625000
vt 0.750000 0.875000
vt 0.750000 0.625000
vt 0.000000 0.000000
s 0
f 55/20/2 46/21/2 49/22/2 27/23/2 53/24/2 54/25/2
f 36/26/3 38/27/3 24/28/3 20/29/3
f 42/30/4 25/31/4 24/28/4 38/27/4
f 44/32/5 32/33/5 25/31/5 42/30/5
f 43/34/6 33/35/6 32/33/6 44/32/6
f 48/36/7 35/37/7 33/35/7 43/34/7
f 45/38/8 34/39/8 35/37/8 48/36/8
f 47/40/9 26/41/9 34/39/9 45/38/9
f 26/41/10 47/40/10 46/42/10 55/43/10 56/44/10 57/45/10
f 52/46/11 29/47/11 27/23/11 49/22/11
f 50/48/12 28/49/12 29/47/12 52/46/12
f 51/50/13 31/51/13 28/49/13 50/48/13
f 30/52/14 31/51/14 51/50/14 41/53/14
f 23/54/15 30/52/15 41/53/15 40/55/15
f 21/56/16 23/54/16 40/55/16 39/57/16
f 22/58/17 21/56/17 39/57/17 37/59/17
f 58/60/18 24/60/18 20/60/18 59/60/18
f 60/60/18 25/60/18 24/60/18 58/60/18
f 61/60/18 32/60/18 25/60/18 60/60/18
f 62/60/18 33/60/18 32/60/18 61/60/18
f 63/60/18 35/60/18 33/60/18 62/60/18
f 64/60/18 34/60/18 35/60/18 63/60/18
f 65/60/18 26/60/18 34/60/18 64/60/18
f 26/60/18 65/60/18 57/60/18
f 66/60/18 27/60/18 53/60/18
f 67/60/18 29/60/18 27/60/18 66/60/18
f 68/60/18 28/60/18 29/60/18 67/60/18
f 69/60/18 31/60/18 28/60/18 68/60/18
f 70/60/18 30/60/18 31/60/18 69/60/18
f 71/60/18 23/60/18 30/60/18 70/60/18
f 72/60/18 21/60/18 23/60/18 71/60/18
f 22/58/18 21/56/18 72/60/18 73/60/18
o Plane.001
v -0.419796 0.000000 -1.500000
v 3.200000 0.000000 -1.500000
v -0.419796 0.200000 -1.500000
v 3.200000 0.200000 -1.500000
v -0.600000 0.000000 -1.520938
v 3.200000 0.000000 -1.520938
v -0.600000 0.200000 -1.520938
v 3.200000 0.200000 -1.520938
vn -0.0000 -0.0000 -1.0000
vn -0.0000 -0.0000 1.0000
vn -1.0000 -0.0000 -0.0000
vn 0.1154 -0.0000 -0.9933
vn -0.0000 -1.0000 -0.0000
vn -0.0000 1.0000 -0.0000
vt 0.000000 0.000000
vt 0.000000 1.000000
vt 1.000000 1.000000
vt 1.000000 0.000000
s 0
f 74/61/19 76/62/19 77/63/19 75/64/19
f 78/61/20 79/64/20 81/63/20 80/62/20
f 75/64/21 77/63/21 81/63/21 79/64/21
f 76/62/22 74/61/22 78/61/22 80/62/22
f 77/63/23 76/62/23 80/62/23 81/63/23
f 74/61/24 75/64/24 79/64/24 78/61/24
o Cube.002
v 3.200000 0.000000 0.450000
v 3.200000 0.200000 0.450000
v 3.200000 0.200000 1.800000
v 3.200000 0.000000 -0.150000
v 3.200000 0.200000 -1.500000
v 3.200000 0.200000 -0.150000
v 2.529922 0.200000 -1.500000
v 2.529922 0.000000 -1.500000
v 2.531737 0.200000 1.800000
v 2.531737 0.000000 1.800000
v 3.073097 0.200000 0.450000
v 2.984672 0.200000 0.555573
v 3.051038 0.200000 0.458036
v 3.026487 0.200000 0.480922
v 3.003182 0.200000 0.515172
v 2.984672 0.000000 0.555573
v 3.073097 0.000000 0.450000
v 3.003182 0.000000 0.515172
v 3.026487 0.000000 0.480922
v 3.051038 0.000000 0.458036
v 2.982857 0.200000 -0.255573
v 3.071282 0.200000 -0.150000
v 3.001367 0.200000 -0.215172
v 3.024672 0.200000 -0.180922
v 3.049223 0.200000 -0.158036
v 3.071282 0.000000 -0.150000
v 2.982857 0.000000 -0.255573
v 3.049223 0.000000 -0.158036
v 3.024672 0.000000 -0.180922
v 3.001367 0.000000 -0.215172
vn -0.9397 -0.0000 -0.3420
vn -0.0000 1.0000 -0.0000
vn -0.0000 -0.0000 1.0000
vn -0.3423 -0.0000 -0.9396
vn -0.6819 -0.0000 -0.7315
vn -0.8268 -0.0000 -0.5625
vn -0.9091 -0.0000 -0.4165
vn -0.0000 -0.0000 -1.0000
vn -0.9091 -0.0000 0.4165
vn -0.8268 -0.0000 0.5625
vn -0.6819 -0.0000 0.7315
vn -0.3423 -0.0000 0.9396
vn -0.9397 -0.0000 0.3420
vt 0.375000 0.524312
vt 0.375000 0.708241
vt 0.625000 0.708241
vt 0.625000 0.524312
vt 0.679286 0.594275
vt 0.674658 0.597335
vt 0.668832 0.599930
vt 0.662694 0.601664
vt 0.657179 0.602273
vt 0.625000 0.602273
vt 0.625000 0.500000
vt 0.792519 0.500000
vt 0.792066 0.750000
vt 0.625000 0.750000
vt 0.625000 0.647727
vt 0.656726 0.647727
vt 0.662241 0.648336
vt 0.668378 0.650070
vt 0.674204 0.652665
vt 0.678832 0.655725
vt 0.375000 0.467820
vt 0.375000 0.500000
vt 0.625000 0.467821
vt 0.625000 0.781726
vt 0.375000 0.781726
vt 0.375000 0.787240
vt 0.625000 0.787241
vt 0.375000 0.794226
vt 0.625000 0.794226
vt 0.625000 0.508708
vt 0.375000 0.508708
vt 0.375000 0.517428
vt 0.625000 0.517428
vt 0.375000 0.750000
vt 0.625000 0.724949
vt 0.375000 0.724949
vt 0.375000 0.731833
vt 0.625000 0.731833
vt 0.375000 0.740553
vt 0.625000 0.740553
vt 0.625000 0.455321
vt 0.375000 0.455321
vt 0.375000 0.462306
vt 0.625000 0.462306
vt 0.625000 0.541020
vt 0.375000 0.541020
s 0
f 97/65/25 91/66/25 90/67/25 93/68/25
f 102/69/26 104/70/26 105/71/26 106/72/26 103/73/26 87/74/26 86/75/26 88/76/26
f 90/77/26 84/78/26 83/79/26 92/80/26 94/81/26 95/82/26 96/83/26 93/84/26
f 107/85/27 85/86/27 87/75/27 103/87/27
f 92/88/28 98/89/28 101/90/28 94/91/28
f 94/91/29 101/90/29 100/92/29 95/93/29
f 95/94/30 100/95/30 99/96/30 96/97/30
f 96/97/31 99/96/31 97/65/31 93/68/31
f 92/88/32 83/78/32 82/98/32 98/89/32
f 102/99/33 108/100/33 111/101/33 104/102/33
f 104/102/34 111/101/34 110/103/34 105/104/34
f 105/105/35 110/106/35 109/107/35 106/108/35
f 106/108/36 109/107/36 107/85/36 103/87/36
f 108/100/37 102/99/37 88/109/37 89/110/37
o Cylinder.002
v -0.875582 0.200000 -1.782706
v -0.700000 0.200000 -1.800000
v -1.044415 0.200000 -1.731491
v -1.582706 0.200000 -0.724418
v -1.582706 0.200000 -1.075581
v -1.600000 0.200000 -0.900000
v -1.448323 0.200000 -1.400013
v -1.531492 0.200000 -1.244415
v -1.200013 0.200000 -1.648322
v -1.336396 0.200000 -1.536396
v -1.531492 0.200000 -0.555585
v -0.700000 0.000000 -1.800000
v -0.875582 0.000000 -1.782706
v -1.044415 0.000000 -1.731491
v -1.200013 0.000000 -1.648322
v -1.531492 0.000000 -0.555585
v -1.600000 0.000000 -0.900000
v -1.582706 0.000000 -0.724418
v -1.582706 0.000000 -1.075581
v -1.448323 0.000000 -1.400013
v -1.336396 0.000000 -1.536396
v -1.531492 0.000000 -1.244415
v -1.582706 0.200000 -0.724418
v -1.582706 0.200000 -1.075581
v -1.600000 0.200000 -0.900000
v -1.448323 0.200000 -1.400013
v -1.531492 0.200000 -1.244415
v -1.531492 0.200000 -0.555585
v -1.531492 0.000000 -0.555585
v -1.600000 0.000000 -0.900000
v -1.582706 0.000000 -0.724418
v -1.582706 0.000000 -1.075581
v -1.448323 0.000000 -1.400013
v -1.531492 0.000000 -1.244415
v -1.582706 0.200000 -0.724418
v -1.582706 0.200000 -1.075581
v -1.600000 0.200000 -0.900000
v -1.448323 0.200000 -1.400013
v -1.531492 0.200000 -1.244415
v -1.531492 0.200000 -0.555585
v -1.531492 0.000000 -0.555585
v -1.600000 0.000000 -0.900000
v -1.582706 0.000000 -0.724418
v -1.582706 0.000000 -1.075581
v -1.448323 0.000000 -1.400013
v -1.531492 0.000000 -1.244415
v -1.582706 0.200000 -0.724418
v -1.582706 0.200000 -1.075581
v -1.600000 0.200000 -0.900000
v -1.448323 0.200000 -1.400013
v -1.531492 0.200000 -1.244415
v -1.531492 0.200000 -0.555585
v -1.531492 0.000000 -0.555585
v -1.600000 0.000000 -0.900000
v -1.582706 0.000000 -0.724418
v -1.582706 0.000000 -1.075581
v -1.448323 0.000000 -1.400013
v -1.531492 0.000000 -1.244415
v -0.875582 0.200000 -1.782706
v -0.700000 0.200000 -1.800000
v -1.044415 0.200000 -1.731491
v -1.200013 0.200000 -1.648322
v -1.336396 0.200000 -1.536396
v -0.700000 0.000000 -1.800000
v -0.875582 0.000000 -1.782706
v -1.044415 0.000000 -1.731491
v -1.200013 0.000000 -1.648322
v -1.336396 0.000000 -1.536396
v -1.448323 0.200000 -1.400013
v -1.448323 0.000000 -1.400013
v -0.875582 0.200000 -1.782706
v -0.700000 0.200000 -1.800000
v -1.044415 0.200000 -1.731491
v -1.200013 0.200000 -1.648322
v -1.336396 0.200000 -1.536396
v -0.700000 0.000000 -1.800000
v -0.875582 0.000000 -1.782706
v -1.044415 0.000000 -1.731491
v -1.200013 0.000000 -1.648322
v -1.336396 0.000000 -1.536396
vn 1.0000 -0.0000 -0.0000
vn 0.7730 -0.0000 0.6344
vn 0.9952 -0.0000 0.0980
vn 0.9569 -0.0000 0.2903
vn 0.8819 -0.0000 0.4714
vn 0.9569 -0.0000 -0.2903
vn 0.9952 -0.0000 -0.0980
vn 0.6344 -0.0000 0.7730
vn 0.4714 -0.0000 0.8819
vn 0.2903 -0.0000 0.9569
vn 0.0980 -0.0000 0.9952
vt 0.000000 0.000000
vt 0.875000 0.625000
vt 0.875000 0.875000
vt 0.906250 0.875000
vt 0.906250 0.625000
vt 0.968750 0.625000
vt 0.968750 0.875000
vt 1.000000 0.875000
vt 1.000000 0.625000
vt 0.937500 0.625000
vt 0.937500 0.875000
vt 0.031250 0.625000
vt 0.031250 0.875000
vt 0.062500 0.875000
vt 0.062500 0.625000
vt 0.000000 0.625000
vt 0.000000 0.875000
vt 0.843750 0.875000
vt 0.843750 0.625000
vt 0.812500 0.875000
vt 0.812500 0.625000
vt 0.781250 0.875000
vt 0.781250 0.625000
vt 0.750000 0.875000
vt 0.750000 0.625000
s 0
f 118/111/38 119/111/38 138/111/38 137/111/38
f 133/111/38 131/111/38 144/111/38 145/111/38
f 128/111/38 130/111/38 143/111/38 141/111/38
f 132/112/39 121/113/39 118/114/39 131/115/39
f 124/111/38 123/111/38 175/111/38 176/111/38
f 168/115/38 161/114/38 180/114/38 181/115/38
f 132/111/38 126/111/38 178/111/38 179/111/38
f 126/111/38 125/111/38 177/111/38 178/111/38
f 116/111/38 117/111/38 136/111/38 135/111/38
f 129/111/38 128/111/38 141/111/38 142/111/38
f 134/111/38 139/111/38 151/111/38 146/111/38
f 139/111/38 140/111/38 152/111/38 151/111/38
f 144/115/38 137/114/38 149/114/38 156/115/38
f 143/111/38 145/111/38 157/111/38 155/111/38
f 136/111/38 134/111/38 146/111/38 148/111/38
f 115/111/38 122/111/38 139/111/38 134/111/38
f 130/111/38 133/111/38 145/111/38 143/111/38
f 119/111/38 116/111/38 135/111/38 138/111/38
f 117/111/38 115/111/38 134/111/38 136/111/38
f 122/111/38 127/111/38 140/111/38 139/111/38
f 131/115/38 118/114/38 137/114/38 144/115/38
f 127/111/38 129/111/38 142/111/38 140/111/38
f 151/111/38 152/111/38 164/111/38 163/111/38
f 156/115/38 149/114/38 161/114/38 168/115/38
f 155/111/38 157/111/38 169/111/38 167/111/38
f 148/111/38 146/111/38 158/111/38 160/111/38
f 150/111/38 147/111/38 159/111/38 162/111/38
f 140/111/38 142/111/38 154/111/38 152/111/38
f 145/111/38 144/111/38 156/111/38 157/111/38
f 141/111/38 143/111/38 155/111/38 153/111/38
f 142/111/38 141/111/38 153/111/38 154/111/38
f 135/111/38 136/111/38 148/111/38 147/111/38
f 137/111/38 138/111/38 150/111/38 149/111/38
f 138/111/38 135/111/38 147/111/38 150/111/38
f 167/116/40 159/117/40 160/118/40 165/119/40
f 169/120/41 162/121/41 159/117/41 167/116/41
f 168/115/42 161/114/42 162/121/42 169/120/42
f 166/122/43 158/123/43 163/124/43 164/125/43
f 165/126/44 160/127/44 158/123/44 166/122/44
f 146/111/38 151/111/38 163/111/38 158/111/38
f 152/111/38 154/111/38 166/111/38 164/111/38
f 157/111/38 156/111/38 168/111/38 169/111/38
f 153/111/38 155/111/38 167/111/38 165/111/38
f 154/111/38 153/111/38 165/111/38 166/111/38
f 147/111/38 148/111/38 160/111/38 159/111/38
f 149/111/38 150/111/38 162/111/38 161/111/38
f 178/111/38 177/111/38 189/111/38 190/111/38
f 177/111/38 176/111/38 188/111/38 189/111/38
f 170/111/38 172/111/38 184/111/38 182/111/38
f 176/111/38 175/111/38 187/111/38 188/111/38
f 113/111/38 112/111/38 170/111/38 171/111/38
f 125/111/38 124/111/38 176/111/38 177/111/38
f 123/111/38 113/111/38 171/111/38 175/111/38
f 114/111/38 120/111/38 173/111/38 172/111/38
f 112/111/38 114/111/38 172/111/38 170/111/38
f 120/111/38 121/111/38 174/111/38 173/111/38
f 121/113/38 132/112/38 179/112/38 174/113/38
f 185/128/45 186/113/45 191/112/45 190/129/45
f 184/130/46 185/128/46 190/129/46 189/131/46
f 182/132/47 184/130/47 189/131/47 188/133/47
f 183/134/48 182/132/48 188/133/48 187/135/48
f 172/111/38 173/111/38 185/111/38 184/111/38
f 179/111/38 178/111/38 190/111/38 191/111/38
f 175/111/38 171/111/38 183/111/38 187/111/38
f 173/111/38 174/111/38 186/111/38 185/111/38
f 171/111/38 170/111/38 182/111/38 183/111/38
f 174/113/38 179/112/38 191/112/38 186/113/38
o Cube.005
v -3.299999 -0.200000 1.899999
v -3.200000 -0.200000 1.800000
v -3.299999 0.200000 1.899999
v -3.200000 0.200000 1.800000
v -3.299999 -0.200000 -1.899999
v -3.200000 -0.200000 -1.800000
v -3.299999 0.200000 -1.899999
v -3.200000 0.200000 -1.800000
v 3.299999 -0.200000 1.899999
v 3.200000 -0.200000 1.800000
v 3.299999 0.200000 1.899999
v 3.200000 0.200000 1.800000
v 3.299999 -0.200000 -1.899999
v 3.200000 -0.200000 -1.800000
v 3.299999 0.200000 -1.899999
v 3.200000 0.200000 -1.800000
v 3.299999 0.200000 0.450000
v 3.299999 0.000000 -0.150000
v 3.299999 0.200000 -0.150000
v 3.299999 0.000000 0.450000
v 3.200000 0.200000 0.450000
v 3.200000 0.200000 -0.150000
v 3.200000 0.000000 -0.150000
v 3.200000 0.000000 0.450000
vn -1.0000 -0.0000 -0.0000
vn -0.0000 -0.0000 -1.0000
vn 1.0000 -0.0000 -0.0000
vn -0.0000 -0.0000 1.0000
vn -0.0000 -1.0000 -0.0000
vn -0.0000 1.0000 -0.0000
vt 0.375000 0.000000
vt 0.625000 0.000000
vt 0.625000 0.250000
vt 0.375000 0.250000
vt 0.625000 0.500000
vt 0.375000 0.500000
vt 0.625000 0.654605
vt 0.625000 0.750000
vt 0.375000 0.750000
vt 0.625000 0.615132
vt 0.500000 0.615132
vt 0.500000 0.654605
vt 0.625000 1.000000
vt 0.375000 1.000000
vt 0.125000 0.500000
vt 0.128788 0.506579
vt 0.128788 0.743421
vt 0.125000 0.750000
vt 0.371212 0.506579
vt 0.371212 0.743421
vt 0.628788 0.506579
vt 0.628788 0.615132
vt 0.628788 0.654605
vt 0.628788 0.743421
vt 0.871212 0.506579
vt 0.875000 0.500000
vt 0.875000 0.750000
vt 0.871212 0.743421
vt 0.625000 0.656250
vt 0.500000 0.656250
vt 0.500000 0.614583
vt 0.625000 0.614583
vt 0.375000 0.354167
vt 0.375000 0.395833
vt 0.541667 0.395833
vt 0.541667 0.354167
vt 0.541667 0.854167
vt 0.375000 0.854167
vt 0.375000 0.895833
vt 0.541667 0.895833
vt 0.270833 0.750000
vt 0.270833 0.500000
vt 0.229167 0.500000
vt 0.229167 0.750000
s 0
f 192/136/49 194/137/49 198/138/49 196/139/49
f 196/139/50 198/138/50 206/140/50 204/141/50
f 208/142/51 202/143/51 200/144/51 204/141/51 206/140/51 210/145/51 209/146/51 211/147/51
f 200/144/52 202/143/52 194/148/52 192/149/52
f 196/150/53 197/151/53 193/152/53 192/153/53
f 205/154/53 197/151/53 196/150/53 204/141/53 200/144/53 192/153/53 193/152/53 201/155/53
f 210/145/54 206/140/54 207/156/54 213/157/54
f 212/158/54 203/159/54 202/143/54 208/142/54
f 199/160/54 207/156/54 206/140/54 198/161/54 194/162/54 202/143/54 203/159/54 195/163/54
f 195/137/51 193/136/51 197/139/51 199/138/51
f 205/141/52 207/140/52 199/138/52 197/139/52
f 207/140/49 205/141/49 201/144/49 203/143/49 212/164/49 215/165/49 214/166/49 213/167/49
f 195/148/50 203/143/50 201/144/50 193/149/50
f 214/168/52 209/169/52 210/170/52 213/171/52
f 208/172/50 211/173/50 215/174/50 212/175/50
f 211/176/54 209/177/54 214/178/54 215/179/54
