# Blender 4.1.1
# www.blender.org
mtllib board_0.mtl
o Plane
v 3.200000 0.000000 1.800000
v 3.200000 0.000000 -1.800000
v -2.400027 0.000000 1.496645
v -2.088830 0.000000 1.662983
v -1.751163 0.000000 1.765413
v -1.400000 0.000000 1.800000
v -3.165414 0.000000 0.351163
v -3.200000 0.000000 0.000000
v -3.062983 0.000000 0.688830
v -3.062983 0.000000 -0.688830
v -2.896645 0.000000 1.000026
v -3.165414 0.000000 -0.351163
v -2.672792 0.000000 1.272792
v -2.672792 0.000000 -1.272792
v -2.400027 0.000000 -1.496645
v -2.088830 0.000000 -1.662983
v -1.751163 0.000000 -1.765413
v -1.400000 0.000000 -1.800000
v -2.896645 0.000000 -1.000026
vn -0.0000 1.0000 -0.0000
vt 0.226381 0.990393
vt 0.173620 0.961940
vt 0.124996 0.915735
vt 0.082376 0.853553
vt 0.047399 0.777785
vt 0.021409 0.691342
vt 0.005404 0.597545
vt 0.000000 0.500000
vt 0.005404 0.402455
vt 0.021409 0.308658
vt 0.047399 0.222215
vt 0.082376 0.146447
vt 0.124996 0.084265
vt 0.173620 0.038060
vt 0.226381 0.009607
vt 0.281250 0.000000
vt 1.000000 0.000000
vt 1.000000 1.000000
vt 0.281250 1.000000
s 0
f 17/1/1 16/2/1 15/3/1 14/4/1 19/5/1 10/6/1 12/7/1 8/8/1 7/9/1 9/10/1 11/11/1 13/12/1 3/13/1 4/14/1 5/15/1 6/16/1 1/17/1 2/18/1 18/19/1
o Plane.001
v -0.804156 0.000000 -1.524883
v 3.200000 0.000000 -1.524883
v -0.804156 0.200000 -1.524883
v 3.200000 0.200000 -1.524883
v 3.200000 0.200000 -1.501868
v -0.804156 0.200000 -1.501868
v 3.200000 0.000000 -1.501868
v -0.804156 0.000000 -1.501868
vn -0.0000 -0.0000 1.0000
vn -0.0000 1.0000 -0.0000
vn 1.0000 -0.0000 -0.0000
vn -1.0000 -0.0000 -0.0000
vn -0.0000 -0.0000 -1.0000
vn -0.0000 -1.0000 -0.0000
vt 0.000000 0.000000
vt 1.000000 0.000000
vt 1.000000 1.000000
vt 0.000000 1.000000
s 0
f 20/20/2 21/21/2 23/22/2 22/23/2
f 21/21/3 20/20/3 27/20/3 26/21/3
f 20/20/4 22/23/4 25/23/4 27/20/4
f 23/22/5 21/21/5 26/21/5 24/22/5
f 27/20/6 25/23/6 24/22/6 26/21/6
f 22/23/7 23/22/7 24/22/7 25/23/7
o Cube.002
v 3.200000 0.000000 0.450000
v 3.200000 0.200000 0.450000
v 3.200000 0.200000 1.800000
v 3.200000 0.000000 -0.150000
v 3.200000 0.200000 -1.500000
v 3.200000 0.200000 -0.150000
v 2.529922 0.200000 -1.500000
v 2.529922 0.000000 -1.500000
v 2.531737 0.200000 1.800000
v 2.531737 0.000000 1.800000
v 3.073097 0.200000 0.450000
v 2.984672 0.200000 0.555573
v 3.051038 0.200000 0.458036
v 3.026487 0.200000 0.480922
v 3.003182 0.200000 0.515172
v 2.984672 0.000000 0.555573
v 3.073097 0.000000 0.450000
v 3.003182 0.000000 0.515172
v 3.026487 0.000000 0.480922
v 3.051038 0.000000 0.458036
v 2.982857 0.200000 -0.255573
v 3.071282 0.200000 -0.150000
v 3.001367 0.200000 -0.215172
v 3.024672 0.200000 -0.180922
v 3.049223 0.200000 -0.158036
v 3.071282 0.000000 -0.150000
v 2.982857 0.000000 -0.255573
v 3.049223 0.000000 -0.158036
v 3.024672 0.000000 -0.180922
v 3.001367 0.000000 -0.215172
vn -0.9397 -0.0000 -0.3420
vn -0.0000 1.0000 -0.0000
vn -0.0000 -0.0000 1.0000
vn -0.3423 -0.0000 -0.9396
vn -0.6819 -0.0000 -0.7315
vn -0.8268 -0.0000 -0.5625
vn -0.9091 -0.0000 -0.4165
vn -0.0000 -0.0000 -1.0000
vn -0.9091 -0.0000 0.4165
vn -0.8268 -0.0000 0.5625
vn -0.6819 -0.0000 0.7315
vn -0.3423 -0.0000 0.9396
vn -0.9397 -0.0000 0.3420
vt 0.375000 0.524312
vt 0.375000 0.708241
vt 0.625000 0.708241
vt 0.625000 0.524312
vt 0.662694 0.601664
vt 0.657179 0.602273
vt 0.625000 0.602273
vt 0.625000 0.500000
vt 0.792519 0.500000
vt 0.679286 0.594275
vt 0.674658 0.597335
vt 0.668832 0.599930
vt 0.668378 0.650070
vt 0.674204 0.652665
vt 0.678832 0.655725
vt 0.792066 0.750000
vt 0.625000 0.750000
vt 0.625000 0.647727
vt 0.656726 0.647727
vt 0.662241 0.648336
vt 0.375000 0.467820
vt 0.375000 0.500000
vt 0.625000 0.467821
vt 0.625000 0.781726
vt 0.375000 0.781726
vt 0.375000 0.787240
vt 0.625000 0.787241
vt 0.375000 0.794226
vt 0.625000 0.794226
vt 0.625000 0.508708
vt 0.375000 0.508708
vt 0.375000 0.517428
vt 0.625000 0.517428
vt 0.375000 0.750000
vt 0.625000 0.724949
vt 0.375000 0.724949
vt 0.375000 0.731833
vt 0.625000 0.731833
vt 0.375000 0.740553
vt 0.625000 0.740553
vt 0.625000 0.455321
vt 0.375000 0.455321
vt 0.375000 0.462306
vt 0.625000 0.462306
vt 0.625000 0.541020
vt 0.375000 0.541020
s 0
f 43/24/8 37/25/8 36/26/8 39/27/8
f 52/28/9 49/29/9 33/30/9 32/31/9 34/32/9 48/33/9 50/34/9 51/35/9
f 41/36/9 42/37/9 39/38/9 36/39/9 30/40/9 29/41/9 38/42/9 40/43/9
f 53/44/10 31/45/10 33/31/10 49/46/10
f 38/47/11 44/48/11 47/49/11 40/50/11
f 40/50/12 47/49/12 46/51/12 41/52/12
f 41/53/13 46/54/13 45/55/13 42/56/13
f 42/56/14 45/55/14 43/24/14 39/27/14
f 38/47/15 29/40/15 28/57/15 44/48/15
f 48/58/16 54/59/16 57/60/16 50/61/16
f 50/61/17 57/60/17 56/62/17 51/63/17
f 51/64/18 56/65/18 55/66/18 52/67/18
f 52/67/19 55/66/19 53/44/19 49/46/19
f 54/59/20 48/58/20 34/68/20 35/69/20
o Cube.005
v -3.299999 -0.200000 1.899999
v -3.200000 -0.200000 1.800000
v -3.299999 0.200000 1.899999
v -3.200000 0.200000 1.800000
v -3.299999 -0.200000 -1.899999
v -3.200000 -0.200000 -1.800000
v -3.299999 0.200000 -1.899999
v -3.200000 0.200000 -1.800000
v 3.299999 -0.200000 1.899999
v 3.200000 -0.200000 1.800000
v 3.299999 0.200000 1.899999
v 3.200000 0.200000 1.800000
v 3.299999 -0.200000 -1.899999
v 3.200000 -0.200000 -1.800000
v 3.299999 0.200000 -1.899999
v 3.200000 0.200000 -1.800000
v 3.299999 0.200000 0.450000
v 3.299999 0.000000 -0.150000
v 3.299999 0.200000 -0.150000
v 3.299999 0.000000 0.450000
v 3.200000 0.200000 0.450000
v 3.200000 0.200000 -0.150000
v 3.200000 0.000000 -0.150000
v 3.200000 0.000000 0.450000
vn -1.0000 -0.0000 -0.0000
vn -0.0000 -0.0000 -1.0000
vn 1.0000 -0.0000 -0.0000
vn -0.0000 -0.0000 1.0000
vn -0.0000 -1.0000 -0.0000
vn -0.0000 1.0000 -0.0000
vt 0.375000 0.000000
vt 0.625000 0.000000
vt 0.625000 0.250000
vt 0.375000 0.250000
vt 0.625000 0.500000
vt 0.375000 0.500000
vt 0.625000 0.654605
vt 0.625000 0.750000
vt 0.375000 0.750000
vt 0.625000 0.615132
vt 0.500000 0.615132
vt 0.500000 0.654605
vt 0.625000 1.000000
vt 0.375000 1.000000
vt 0.125000 0.500000
vt 0.128788 0.506579
vt 0.128788 0.743421
vt 0.125000 0.750000
vt 0.371212 0.506579
vt 0.371212 0.743421
vt 0.628788 0.506579
vt 0.628788 0.615132
vt 0.628788 0.654605
vt 0.628788 0.743421
vt 0.871212 0.506579
vt 0.875000 0.500000
vt 0.875000 0.750000
vt 0.871212 0.743421
vt 0.625000 0.656250
vt 0.500000 0.656250
vt 0.500000 0.614583
vt 0.625000 0.614583
vt 0.375000 0.354167
vt 0.375000 0.395833
vt 0.541667 0.395833
vt 0.541667 0.354167
vt 0.541667 0.854167
vt 0.375000 0.854167
vt 0.375000 0.895833
vt 0.541667 0.895833
vt 0.270833 0.750000
vt 0.270833 0.500000
vt 0.229167 0.500000
vt 0.229167 0.750000
s 0
f 58/70/21 60/71/21 64/72/21 62/73/21
f 62/73/22 64/72/22 72/74/22 70/75/22
f 74/76/23 68/77/23 66/78/23 70/75/23 72/74/23 76/79/23 75/80/23 77/81/23
f 66/78/24 68/77/24 60/82/24 58/83/24
f 62/84/25 63/85/25 59/86/25 58/87/25
f 71/88/25 63/85/25 62/84/25 70/75/25 66/78/25 58/87/25 59/86/25 67/89/25
f 76/79/26 72/74/26 73/90/26 79/91/26
f 78/92/26 69/93/26 68/77/26 74/76/26
f 65/94/26 73/90/26 72/74/26 64/95/26 60/96/26 68/77/26 69/93/26 61/97/26
f 61/71/23 59/70/23 63/73/23 65/72/23
f 71/75/24 73/74/24 65/72/24 63/73/24
f 73/74/21 71/75/21 67/78/21 69/77/21 78/98/21 81/99/21 80/100/21 79/101/21
f 61/82/22 69/77/22 67/78/22 59/83/22
f 80/102/24 75/103/24 76/104/24 79/105/24
f 74/106/22 77/107/22 81/108/22 78/109/22
f 77/110/26 75/111/26 80/112/26 81/113/26
o Cube.001
v -3.200000 0.000000 1.800000
v -3.200000 0.200000 1.800000
v -3.200000 0.000000 -1.800000
v -3.200000 0.200000 -1.800000
v -1.400000 0.000000 1.800000
v -1.400000 0.200000 1.800000
v -1.400000 0.000000 -1.800000
v -1.400000 0.200000 -1.800000
v -1.751162 0.000000 1.765413
v -1.751162 0.200000 1.765413
v -2.088830 0.000000 1.662983
v -2.088830 0.200000 1.662983
v -2.400026 0.000000 1.496645
v -2.400026 0.200000 1.496645
v -2.672792 0.000000 1.272792
v -2.672792 0.200000 1.272792
v -2.896645 0.000000 1.000026
v -2.896645 0.200000 1.000026
v -3.062983 0.000000 0.688830
v -3.062983 0.200000 0.688830
v -3.165413 0.000000 0.351163
v -3.165413 0.200000 0.351163
v -3.200000 0.000000 0.000000
v -3.200000 0.200000 0.000000
v -3.165413 0.000000 -0.351163
v -3.165413 0.200000 -0.351163
v -3.062983 0.000000 -0.688830
v -3.062983 0.200000 -0.688830
v -2.896645 0.000000 -1.000026
v -2.896645 0.200000 -1.000026
v -2.672792 0.000000 -1.272792
v -2.672792 0.200000 -1.272792
v -2.400026 0.000000 -1.496645
v -2.400026 0.200000 -1.496645
v -2.088830 0.000000 -1.662983
v -2.088830 0.200000 -1.662983
v -1.751162 0.000000 -1.765413
v -1.751162 0.200000 -1.765413
vn -1.0000 -0.0000 -0.0000
vn -0.0000 -0.0000 -1.0000
vn -0.0000 -0.0000 1.0000
vn -0.0000 -1.0000 -0.0000
vn -0.0000 1.0000 -0.0000
vn 0.0980 -0.0000 -0.9952
vn 0.2903 -0.0000 -0.9569
vn 0.4714 -0.0000 -0.8819
vn 0.6344 -0.0000 -0.7730
vn 0.7730 -0.0000 -0.6344
vn 0.8819 -0.0000 -0.4714
vn 0.9569 -0.0000 -0.2903
vn 0.9952 -0.0000 -0.0980
vn 0.9952 -0.0000 0.0980
vn 0.9569 -0.0000 0.2903
vn 0.8819 -0.0000 0.4714
vn 0.7730 -0.0000 0.6344
vn 0.6344 -0.0000 0.7730
vn 0.4714 -0.0000 0.8819
vn 0.2903 -0.0000 0.9569
vn 0.0980 -0.0000 0.9952
vt 0.625000 0.125000
vt 0.625000 0.250000
vt 0.375000 0.250000
vt 0.375000 0.125000
vt 0.375000 0.000000
vt 0.625000 0.000000
vt 0.625000 0.500000
vt 0.375000 0.500000
vt 0.375000 0.750000
vt 0.625000 0.750000
vt 0.625000 1.000000
vt 0.375000 1.000000
vt 0.125000 0.500000
vt 0.326227 0.502402
vt 0.279329 0.509515
vt 0.236107 0.521066
vt 0.198223 0.536612
vt 0.167133 0.555554
vt 0.144030 0.577165
vt 0.129804 0.600614
vt 0.125000 0.625000
vt 0.125000 0.750000
vt 0.129804 0.649386
vt 0.144030 0.672835
vt 0.167133 0.694446
vt 0.198223 0.713388
vt 0.236107 0.728934
vt 0.279329 0.740485
vt 0.326227 0.747598
vt 0.875000 0.625000
vt 0.875000 0.750000
vt 0.673773 0.747598
vt 0.720671 0.740485
vt 0.763893 0.728934
vt 0.801777 0.713388
vt 0.832867 0.694446
vt 0.855970 0.672835
vt 0.870196 0.649386
vt 0.673773 0.502402
vt 0.875000 0.500000
vt 0.870196 0.600614
vt 0.855970 0.577165
vt 0.832867 0.555554
vt 0.801777 0.536612
vt 0.763893 0.521066
vt 0.720671 0.509515
vt 0.468750 1.000000
vt 0.500000 1.000000
vt 0.500000 0.500000
vt 0.468750 0.500000
vt 0.437500 1.000000
vt 0.437500 0.500000
vt 0.406250 1.000000
vt 0.406250 0.500000
vt 0.343750 0.500000
vt 0.343750 1.000000
vt 0.312500 1.000000
vt 0.312500 0.500000
vt 0.281250 0.500000
vt 0.281250 1.000000
vt 0.250000 0.500000
vt 0.250000 1.000000
vt 0.218750 0.500000
vt 0.218750 1.000000
vt 0.187500 0.500000
vt 0.187500 1.000000
vt 0.156250 0.500000
vt 0.156250 1.000000
vt 0.125000 1.000000
vt 0.093750 0.500000
vt 0.093750 1.000000
vt 0.062500 0.500000
vt 0.062500 1.000000
vt 0.031250 0.500000
vt 0.031250 1.000000
vt 0.000000 0.500000
vt 0.000000 1.000000
s 0
f 105/114/27 85/115/27 84/116/27 104/117/27
f 82/118/27 83/119/27 105/114/27 104/117/27
f 84/116/28 85/115/28 89/120/28 88/121/28
f 86/122/29 87/123/29 83/124/29 82/125/29
f 84/126/30 88/121/30 118/127/30 116/128/30 114/129/30 112/130/30 110/131/30 108/132/30 106/133/30 104/134/30
f 86/122/30 82/135/30 104/134/30 102/136/30 100/137/30 98/138/30 96/139/30 94/140/30 92/141/30 90/142/30
f 105/143/31 83/144/31 87/123/31 91/145/31 93/146/31 95/147/31 97/148/31 99/149/31 101/150/31 103/151/31
f 119/152/31 89/120/31 85/153/31 105/143/31 107/154/31 109/155/31 111/156/31 113/157/31 115/158/31 117/159/31
f 91/160/32 87/161/32 86/162/32 90/163/32
f 93/164/33 91/160/33 90/163/33 92/165/33
f 95/166/34 93/164/34 92/165/34 94/167/34
f 97/125/35 95/166/35 94/167/35 96/121/35
f 96/121/36 98/168/36 99/169/36 97/125/36
f 101/170/37 99/169/37 98/168/37 100/171/37
f 101/170/38 100/171/38 102/172/38 103/173/38
f 103/173/39 102/172/39 104/174/39 105/175/39
f 104/174/40 106/176/40 107/177/40 105/175/40
f 107/177/41 106/176/41 108/178/41 109/179/41
f 109/179/42 108/178/42 110/180/42 111/181/42
f 112/126/43 113/182/43 111/181/43 110/180/43
f 113/182/44 112/126/44 114/183/44 115/184/44
f 115/184/45 114/183/45 116/185/45 117/186/45
f 117/186/46 116/185/46 118/187/46 119/188/46
f 118/187/47 88/189/47 89/190/47 119/188/47
