# Blender 4.1.1
# www.blender.org
o Cube.007
v 0.544699 -0.100000 0.088117
v 0.333512 -0.100000 0.126564
v 0.552993 -0.100000 0.122310
v 0.538880 -0.100000 0.148698
v 0.489564 -0.100000 0.157676
v 0.415333 -0.100000 0.147371
v 0.333512 0.100000 0.126564
v 0.544699 0.100000 0.088117
v 0.415333 0.100000 0.147371
v 0.489564 0.100000 0.157676
v 0.538880 0.100000 0.148698
v 0.552993 0.100000 0.122310
v -0.600000 0.100000 -0.148087
v -0.560942 0.100000 -0.120398
v -0.597112 0.100000 -0.138154
v -0.582048 0.100000 -0.127475
v -0.560942 -0.100000 -0.120398
v -0.600000 -0.100000 -0.148087
v -0.582048 -0.100000 -0.127475
v -0.597112 -0.100000 -0.138154
v -0.600000 -0.100000 -0.186291
v -0.558872 -0.100000 -0.200000
v -0.596959 -0.100000 -0.193699
v -0.581097 -0.100000 -0.198986
v -0.558872 0.100000 -0.200000
v -0.600000 0.100000 -0.186291
v -0.581097 0.100000 -0.198986
v -0.596959 0.100000 -0.193699
v 0.455520 0.100000 -0.156901
v 0.309586 0.100000 -0.200000
v 0.430226 0.100000 -0.178450
v 0.376811 0.100000 -0.194226
v 0.309586 -0.100000 -0.200000
v 0.455520 -0.100000 -0.156901
v 0.376811 -0.100000 -0.194226
v 0.430226 -0.100000 -0.178450
vn -0.2661 -0.0000 0.9639
vn -0.0000 -0.0000 -1.0000
vn -0.0000 -1.0000 -0.0000
vn 0.9718 -0.0000 -0.2357
vn 0.8818 -0.0000 0.4716
vn 0.1791 -0.0000 0.9838
vn -0.1375 -0.0000 0.9905
vn -0.2465 -0.0000 0.9692
vn -0.0000 1.0000 -0.0000
vn -0.9602 -0.0000 0.2792
vn -0.5783 -0.0000 0.8158
vn -0.3179 -0.0000 0.9481
vn -0.9251 -0.0000 -0.3798
vn -0.3162 -0.0000 -0.9487
vn -0.0456 -0.0000 -0.9990
vn -1.0000 -0.0000 -0.0000
vn 0.6485 -0.0000 -0.7612
vn 0.2832 -0.0000 -0.9590
vn 0.0856 -0.0000 -0.9963
vn 0.9397 -0.0000 -0.3420
vt 0.625000 0.292082
vt 0.375000 0.292082
vt 0.375000 0.437069
vt 0.625000 0.437069
vt 0.375000 0.258568
vt 0.625000 0.258568
vt 0.625000 0.439497
vt 0.375000 0.439497
vt 0.125000 0.508568
vt 0.125634 0.503938
vt 0.128938 0.500634
vt 0.133568 0.500000
vt 0.314497 0.500000
vt 0.328502 0.503609
vt 0.339631 0.513469
vt 0.344900 0.526937
vt 0.363479 0.680073
vt 0.365207 0.701444
vt 0.362267 0.717936
vt 0.351992 0.723547
vt 0.336528 0.717107
vt 0.319482 0.704102
vt 0.133137 0.549752
vt 0.128740 0.545328
vt 0.125602 0.538654
vt 0.125000 0.532446
vt 0.375000 0.414858
vt 0.625000 0.414858
vt 0.625000 0.407314
vt 0.375000 0.407314
vt 0.625000 0.401673
vt 0.375000 0.401673
vt 0.625000 0.391010
vt 0.375000 0.391010
vt 0.375000 0.477648
vt 0.625000 0.477648
vt 0.625000 0.449906
vt 0.375000 0.449906
vt 0.655100 0.526937
vt 0.660370 0.513469
vt 0.671498 0.503609
vt 0.685503 0.500000
vt 0.866432 0.500000
vt 0.871062 0.500634
vt 0.874366 0.503938
vt 0.875000 0.508568
vt 0.875000 0.532446
vt 0.874398 0.538654
vt 0.871260 0.545328
vt 0.866863 0.549752
vt 0.680518 0.704102
vt 0.663472 0.717107
vt 0.648008 0.723547
vt 0.637734 0.717936
vt 0.634793 0.701444
vt 0.636521 0.680073
vt 0.625000 0.217554
vt 0.375000 0.217554
vt 0.375000 0.206988
vt 0.625000 0.206988
vt 0.625000 0.285751
vt 0.375000 0.285751
vt 0.375000 0.288362
vt 0.625000 0.288362
vt 0.375000 0.241432
vt 0.625000 0.241432
vt 0.625000 0.246062
vt 0.375000 0.246062
vt 0.625000 0.253938
vt 0.375000 0.253938
vt 0.625000 0.469179
vt 0.375000 0.469179
vt 0.375000 0.478735
vt 0.625000 0.478735
vt 0.625000 0.466632
vt 0.375000 0.466632
vt 0.375000 0.453502
vt 0.625000 0.453502
s 0
f 14/1/1 17/2/1 2/3/1 7/4/1
f 22/5/2 25/6/2 30/7/2 33/8/2
f 21/9/3 23/10/3 24/11/3 22/12/3 33/13/3 35/14/3 36/15/3 34/16/3 1/17/3 3/18/3 4/19/3 5/20/3 6/21/3 2/22/3 17/23/3 19/24/3 20/25/3 18/26/3
f 1/27/4 8/28/4 12/29/4 3/30/4
f 3/30/5 12/29/5 11/31/5 4/32/5
f 4/32/6 11/31/6 10/33/6 5/34/6
f 5/35/7 10/36/7 9/37/7 6/38/7
f 6/38/8 9/37/8 7/4/8 2/3/8
f 29/39/9 31/40/9 32/41/9 30/42/9 25/43/9 27/44/9 28/45/9 26/46/9 13/47/9 15/48/9 16/49/9 14/50/9 7/51/9 9/52/9 10/53/9 11/54/9 12/55/9 8/56/9
f 13/57/10 18/58/10 20/59/10 15/60/10
f 15/61/11 20/62/11 19/63/11 16/64/11
f 16/64/12 19/63/12 17/2/12 14/1/12
f 21/65/13 26/66/13 28/67/13 23/68/13
f 23/68/14 28/67/14 27/69/14 24/70/14
f 24/70/15 27/69/15 25/6/15 22/5/15
f 13/57/16 26/66/16 21/65/16 18/58/16
f 29/71/17 34/72/17 36/73/17 31/74/17
f 31/75/18 36/76/18 35/77/18 32/78/18
f 32/78/19 35/77/19 33/8/19 30/7/19
f 34/72/20 29/71/20 8/28/20 1/27/20
