# Blender 4.1.1
# www.blender.org
o Cube.006
v 0.771964 0.000000 1.460990
v 0.771964 0.200000 1.460990
v 2.602850 0.200000 0.710648
v 2.602850 0.000000 0.710648
v 2.261992 0.000000 1.271027
v 2.141595 0.000000 1.329766
v 2.238396 0.000000 1.300397
v 2.194328 0.000000 1.321897
v 2.141595 0.200000 1.329669
v 2.261995 0.200000 1.270924
v 2.194329 0.200000 1.321796
v 2.238398 0.200000 1.300294
v 2.362211 0.200000 1.402256
v 2.241775 0.200000 1.460990
v 2.338596 0.200000 1.431623
v 2.294513 0.200000 1.453121
v 2.241775 0.000000 1.460990
v 2.362211 0.000000 1.402256
v 2.294513 0.000000 1.453121
v 2.338596 0.000000 1.431623
v 2.462791 0.200000 0.692753
v 2.515740 0.200000 0.678943
v 2.473618 0.200000 0.680153
v 2.492999 0.200000 0.675098
v 2.515740 0.000000 0.678943
v 2.462792 0.000000 0.692753
v 2.492999 0.000000 0.675098
v 2.473619 0.000000 0.680153
v 0.771964 0.200000 1.389766
v 0.871964 0.200000 1.329759
v 0.785362 0.200000 1.359765
v 0.821964 0.200000 1.337801
v 0.871964 0.000000 1.329766
v 0.771964 0.000000 1.389766
v 0.821964 0.000000 1.337805
v 0.785362 0.000000 1.359766
vn -0.0000 -0.0003 -1.0000
vn -0.0000 -0.0000 1.0000
vn -0.9447 -0.0001 -0.3281
vn 0.9445 -0.0000 0.3286
vn -0.7796 -0.0003 -0.6263
vn -0.4385 -0.0005 -0.8987
vn -0.1476 -0.0005 -0.9890
vn 0.7793 -0.0000 0.6267
vn 0.4383 -0.0000 0.8988
vn 0.1476 -0.0000 0.9891
vn 0.3420 -0.0000 -0.9397
vn -0.7585 -0.0000 -0.6517
vn -0.2524 -0.0000 -0.9676
vn 0.1667 -0.0000 -0.9860
vn -1.0000 -0.0000 -0.0000
vn -0.9131 -0.0000 -0.4078
vn -0.5145 -0.0000 -0.8575
vn -0.1588 -0.0000 -0.9873
vn -0.0000 1.0000 -0.0000
vt 0.349483 0.207511
vt 0.025517 0.015151
vt 0.042528 0.015151
vt 0.582472 0.207511
vt 0.375000 0.250000
vt 0.625000 0.250000
vt 0.625000 0.433726
vt 0.375000 0.433726
vt 0.597450 0.342637
vt 0.055099 0.031599
vt 0.033055 0.031595
vt 0.358473 0.342640
vt 0.375000 0.131115
vt 0.375000 0.203401
vt 0.625000 0.203401
vt 0.625000 0.131115
vt 0.004138 0.001111
vt 0.015624 0.014934
vt 0.000334 -0.005372
vt 0.012061 0.007161
vt 0.375000 0.209540
vt 0.625000 0.209540
vt 0.625000 0.446226
vt 0.375000 0.446226
vt 0.375000 0.440319
vt 0.625000 0.440319
vt 0.625000 0.372654
vt 0.375000 0.372654
vt 0.375000 0.401623
vt 0.625000 0.401623
vt 0.365998 0.349833
vt 0.609995 0.349832
vt 0.375000 0.366180
vt 0.625000 0.366180
vt 0.375000 0.235162
vt 0.625000 0.235162
vt 0.375000 0.228912
vt 0.624225 0.228889
vt 0.362242 0.215086
vt 0.605013 0.216393
vt 0.625000 0.235162
vt 0.042528 0.015151
vt 0.055099 0.031599
vt 0.597450 0.342637
vt 0.613064 0.342142
vt 0.623010 0.320392
vt 0.625000 0.283603
vt 0.625000 0.421561
vt 0.610560 0.424171
vt 0.611029 0.428766
s 0
f 33/1/1 30/4/1 9/3/1 6/2/1
f 1/5/2 17/8/2 14/7/2 2/6/2
f 21/9/3 26/12/3 5/11/3 10/10/3
f 4/13/4 3/16/4 13/15/4 18/14/4
f 5/11/5 7/18/5 12/17/5 10/10/5
f 7/18/6 8/20/6 11/19/6 12/17/6
f 8/20/7 6/2/7 9/3/7 11/19/7
f 13/15/8 15/22/8 20/21/8 18/14/8
f 15/23/9 16/26/9 19/25/9 20/24/9
f 16/26/10 14/7/10 17/8/10 19/25/10
f 22/27/11 3/30/11 4/29/11 25/28/11
f 21/9/12 23/32/12 28/31/12 26/12/12
f 23/32/13 24/34/13 27/33/13 28/31/13
f 24/34/14 22/27/14 25/28/14 27/33/14
f 2/6/15 29/36/15 34/35/15 1/5/15
f 29/36/16 31/38/16 36/37/16 34/35/16
f 31/38/17 32/40/17 35/39/17 36/37/17
f 32/40/18 30/4/18 33/1/18 35/39/18
f 2/6/19 14/7/19 16/50/19 15/49/19 13/48/19 3/16/19 22/47/19 24/46/19 23/45/19 21/44/19 10/43/19 12/17/19 11/19/19 9/42/19 30/4/19 32/40/19 31/38/19 29/41/19
